<?xml version="1.0" standalone="no"?>
<!DOCTYPE svg PUBLIC "-//W3C//DTD SVG 20010904//EN"
 "http://www.w3.org/TR/2001/REC-SVG-20010904/DTD/svg10.dtd">
<svg version="1.0" xmlns="http://www.w3.org/2000/svg"
 width="870.000000pt" height="246.000000pt" viewBox="0 0 870.000000 246.000000"
 preserveAspectRatio="xMidYMid meet">

<g transform="translate(0.000000,246.000000) scale(0.100000,-0.100000)"
fill="#000000" stroke="none">
<path d="M792 1629 c-122 -21 -236 -109 -294 -227 -31 -62 -33 -73 -33 -172 0
-97 2 -110 32 -172 98 -207 343 -294 548 -194 100 50 162 120 206 236 l19 50
-89 0 -90 0 -28 -42 c-98 -146 -301 -147 -393 -1 -74 117 -33 265 91 327 114
56 241 19 305 -89 l26 -45 90 0 c102 0 99 -6 52 98 -32 73 -74 124 -137 165
-91 60 -200 84 -305 66z"/>
<path d="M1470 1230 l0 -410 320 0 320 0 0 85 0 85 -235 0 -235 0 0 325 0 325
-85 0 -85 0 0 -410z"/>
<path d="M2113 1626 c3 -7 73 -106 156 -219 l151 -206 0 -191 0 -190 85 0 85
0 0 186 0 186 160 219 c88 120 160 221 160 224 0 3 -47 5 -104 5 l-104 0 -97
-131 c-53 -72 -100 -127 -104 -123 -4 5 -48 64 -96 132 l-89 122 -104 0 c-84
0 -103 -3 -99 -14z"/>
<path d="M5700 1550 l0 -90 243 -2 242 -3 -43 -42 c-74 -74 -64 -73 -754 -73
l-608 0 0 -260 0 -260 365 0 365 0 0 85 0 85 -275 0 -275 0 0 85 0 85 370 0
370 0 0 -170 0 -170 90 0 90 0 0 175 0 175 79 0 c44 0 86 2 93 5 10 4 48 -49
124 -174 l109 -181 104 0 103 0 -14 23 c-8 12 -67 109 -132 214 l-117 193 33
29 c73 64 128 197 128 308 l0 53 -345 0 -345 0 0 -90z"/>
<path d="M7520 1538 l0 -103 182 -182 183 -183 92 92 93 93 0 -218 0 -217 90
0 90 0 0 410 0 410 -22 0 c-16 0 -72 -49 -183 -160 l-160 -160 -160 160 c-112
112 -166 160 -182 160 -22 0 -23 -3 -23 -102z"/>
<path d="M3125 1606 c-60 -28 -87 -56 -114 -116 -25 -55 -27 -145 -5 -198 19
-47 68 -98 119 -125 35 -19 62 -22 208 -27 162 -5 170 -6 188 -29 25 -31 24
-54 -5 -88 -24 -28 -25 -28 -164 -31 -152 -4 -178 2 -188 43 -6 24 -9 25 -91
25 l-86 0 6 -46 c9 -82 82 -161 170 -185 24 -6 107 -9 206 -7 148 3 170 6 207
25 177 94 179 350 4 438 -46 23 -60 25 -193 25 -79 0 -158 5 -176 11 -55 19
-68 73 -26 114 23 24 28 25 172 25 81 0 153 -4 159 -8 6 -4 16 -17 23 -29 11
-21 19 -23 96 -23 l85 0 -6 33 c-10 52 -43 115 -77 143 -58 49 -83 54 -279 54
-171 0 -186 -2 -233 -24z"/>
<path d="M3860 1545 l0 -85 365 0 365 0 0 85 0 85 -365 0 -365 0 0 -85z"/>
<path d="M4780 1545 l0 -85 365 0 365 0 0 85 0 85 -365 0 -365 0 0 -85z"/>
<path d="M6590 1357 c0 -318 5 -343 79 -417 90 -90 231 -135 352 -112 132 24
250 111 282 207 14 41 17 93 17 322 l0 273 -85 0 -85 0 0 -227 c0 -130 -5
-244 -11 -266 -22 -79 -102 -139 -184 -139 -82 0 -162 60 -184 139 -6 22 -11
136 -11 266 l0 227 -85 0 -85 0 0 -273z"/>
<path d="M4130 1080 l0 -260 85 0 85 0 0 260 0 260 -85 0 -85 0 0 -260z"/>
<path d="M7520 1042 l0 -222 85 0 85 0 0 138 0 137 -85 85 -85 85 0 -223z"/>
</g>
</svg>
